<svg xmlns="http://www.w3.org/2000/svg" viewBox="-2703 -14791.453 19.471 21.452">
  <defs>
    <style>
      .cls-1 {
        fill: none;
        stroke: rgba(149,152,154,0.01);
        stroke-width: 0px;
      }

      .cls-2 {
        fill: #ff602b;
      }
    </style>
  </defs>
  <g id="bath_icon" transform="translate(-2703 -14791.453)">
    <g id="Group_5231" data-name="Group 5231">
      <path id="Path_8342" data-name="Path 8342" class="cls-1" d="M0,0H19.471V21.452H0Z"/>
    </g>
    <path id="Path_8343" data-name="Path 8343" class="cls-2" d="M2.921,10.653V7.436a4.274,4.274,0,0,1,3.31-4.29,5.467,5.467,0,0,0-.974,1.18,4.578,4.578,0,0,0-.292,3.218l.292,1.073,7.5-2.252L12.461,5.29a3.935,3.935,0,0,0-3.7-3.111H8.275L7.2,1H6.815C3.6,1,.974,3.9.974,7.436v3.218H0V15.8a3.123,3.123,0,0,0,2.921,3.325V20.2H4.868V19.127H14.6V20.2H16.55V19.127A3.264,3.264,0,0,0,19.471,15.8V10.653Zm7.2-5.685L6.912,6.041A1.2,1.2,0,0,1,7.107,5.5,2.34,2.34,0,0,1,8.275,4.432c.1-.107.292-.107.487-.107A1.84,1.84,0,0,1,10.125,4.969Zm7.4,10.941A1.25,1.25,0,0,1,16.356,17.2H3.115a1.326,1.326,0,0,1-1.168-1.287V12.8H17.524Z" transform="translate(0 0.073)"/>
  </g>
</svg>
